<svg width="24" height="24" viewBox="0 0 24 24" fill="none" xmlns="http://www.w3.org/2000/svg">
<path d="M14.6667 0L12 5.33348L8.66667 1.99972V6.66619L2 5.33348L7.33333 10.667L0 14.6664H8L4 22.6666L12 17.3331L19.3333 24L17.3333 14.6664H24L18.6667 10.6663L24 4.66646L16 6.66619L14.6667 0Z" fill="#BB1A34"/>
<path d="M15.276 8.58657L16.516 8.27632L20 7.40534L17.746 9.94054L16.8666 10.9304L17.9266 11.7243L19.8766 13.1873H15.9313L16.2466 14.6608L17.2806 19.4841L13.384 15.9417L12.68 15.3013L11.888 15.8294L8.39464 18.1587L9.99864 14.9511L10.88 13.1873H6.37598L8.88198 11.8193L10.312 11.0407L9.16064 9.88805L7.13131 7.85976L9.27864 8.28894L10.736 8.58059V5.77102L11.7026 6.73766L12.8986 7.93284L13.654 6.42076L14.5026 4.72266" fill="#FCAB40"/>
<path d="M14.3417 9.50138L14.853 9.37316L16.2917 9.01374L15.361 10.0608L14.9977 10.4694L15.435 10.7969L16.2403 11.4008H14.6117L14.7417 12.0093L15.169 14.0004L13.5603 12.5382L13.269 12.2738L12.9423 12.4917L11.5003 13.4537L12.1623 12.1289L12.5263 11.4008H10.667L11.7023 10.8361L12.2923 10.5145L11.817 10.0388L10.979 9.20109L11.865 9.37847L12.467 9.49872V8.33941L12.8663 8.73803L13.3597 9.23165L13.6717 8.60781L14.0217 7.90625" fill="#F5F8FA"/>
</svg>
