<svg width="40" height="40" viewBox="0 0 40 40" fill="none" xmlns="http://www.w3.org/2000/svg">
<g clip-path="url(#clip0_7581_88036)">
<path d="M0 39.996H24.6485V15.3516H0V39.996ZM17.1801 28.8663C19.199 28.8663 20.8416 30.5087 20.8416 32.5277C20.8416 34.5466 19.1991 36.1891 17.1801 36.1891C15.1613 36.1891 13.5188 34.5466 13.5188 32.5277C13.5188 30.5088 15.1613 28.8663 17.1801 28.8663ZM7.46827 19.1585C9.48717 19.1585 11.1297 20.8009 11.1297 22.8198C11.1297 24.8387 9.48725 26.4813 7.46827 26.4813C5.44938 26.4813 3.80692 24.8388 3.80692 22.8198C3.80692 20.801 5.44946 19.1585 7.46827 19.1585Z" fill="white"/>
<path d="M17.1807 33.8459C17.9072 33.8459 18.4982 33.2549 18.4982 32.5285C18.4982 31.802 17.9073 31.2109 17.1807 31.2109C16.4543 31.2109 15.8633 31.8019 15.8633 32.5285C15.8633 33.2549 16.4543 33.8459 17.1807 33.8459Z" fill="white"/>
<path d="M7.46978 24.1389C8.19624 24.1389 8.7873 23.5479 8.7873 22.8213C8.7873 22.0949 8.19632 21.5039 7.46978 21.5039C6.74332 21.5039 6.15234 22.0949 6.15234 22.8213C6.15234 23.5479 6.7434 24.1389 7.46978 24.1389Z" fill="white"/>
<path d="M32.5323 6.15234C31.8058 6.15234 31.2148 6.74332 31.2148 7.46978C31.2148 8.19624 31.8058 8.7873 32.5323 8.7873C33.2587 8.7873 33.8498 8.19632 33.8498 7.46978C33.8498 6.74332 33.2588 6.15234 32.5323 6.15234Z" fill="white"/>
<path d="M15.3514 0V13.0086H26.9923V24.6445H39.9999V0H15.3514ZM32.5316 11.1297C30.5127 11.1297 28.8702 9.48725 28.8702 7.46827C28.8702 5.44938 30.5127 3.80692 32.5316 3.80692C34.5505 3.80692 36.193 5.44938 36.193 7.46827C36.193 9.48717 34.5506 11.1297 32.5316 11.1297Z" fill="white"/>
</g>
<defs>
<clipPath id="clip0_7581_88036">
<rect width="40" height="40" fill="white"/>
</clipPath>
</defs>
</svg>
