<svg width="42" height="42" viewBox="0 0 42 42" fill="none" xmlns="http://www.w3.org/2000/svg">
<rect width="42" height="42" rx="12" fill="#09224D" fill-opacity="0.5"/>
<path d="M29.8764 25.8401L21.5206 15.2435C21.461 15.1681 21.3828 15.1067 21.2923 15.0644C21.2018 15.0221 21.1016 15 21 15C20.8984 15 20.7982 15.0221 20.7077 15.0644C20.6172 15.1067 20.539 15.1681 20.4794 15.2435L12.1236 25.8401C12.0531 25.9286 12.0109 26.0333 12.0019 26.1425C11.9928 26.2517 12.0171 26.361 12.0722 26.4583C12.1265 26.5542 12.2086 26.6347 12.3095 26.6908C12.4104 26.7468 12.5262 26.7764 12.6442 26.7762H29.3558C29.4738 26.7764 29.5896 26.7468 29.6905 26.6908C29.7914 26.6347 29.8735 26.5542 29.9278 26.4583C29.9829 26.361 30.0072 26.2517 29.9981 26.1425C29.9891 26.0333 29.9469 25.9286 29.8764 25.8401Z" fill="white"/>
</svg>
