<svg width="24" height="24" viewBox="0 0 24 24" fill="none" xmlns="http://www.w3.org/2000/svg">
<path d="M17.4103 7L6.59101 7C6.48147 7.00035 6.3741 7.03056 6.28045 7.08738C6.1868 7.14421 6.11043 7.2255 6.05954 7.32251C6.00866 7.41951 5.9852 7.52856 5.99168 7.63791C5.99816 7.74726 6.03434 7.85277 6.09633 7.94308L11.506 15.757C11.7302 16.081 12.2699 16.081 12.4947 15.757L17.9044 7.94308C17.967 7.85296 18.0037 7.74739 18.0106 7.63786C18.0174 7.52833 17.9941 7.41902 17.9431 7.32181C17.8922 7.2246 17.8156 7.1432 17.7217 7.08647C17.6277 7.02973 17.52 6.99983 17.4103 7Z" fill="white"/>
</svg>
